<svg width="40" height="40" viewBox="0 0 40 40" fill="none" xmlns="http://www.w3.org/2000/svg">
<circle cx="20" cy="20" r="20" fill="white"/>
<path d="M31.7502 20.6061L28.3212 24.035C27.986 24.3702 27.4442 24.3702 27.109 24.035C26.7739 23.6999 26.7739 23.1581 27.109 22.8229L29.0747 20.8572H20.8572V29.0748L22.8228 27.1091C23.158 26.7739 23.6998 26.7739 24.035 27.1091C24.3702 27.4443 24.3702 27.9861 24.035 28.3213L20.606 31.7502C20.282 32.0751 19.7376 32.0948 19.393 31.7502L15.964 28.3213C15.6289 27.9861 15.6289 27.4443 15.964 27.1091C16.2992 26.7739 16.841 26.7739 17.1762 27.1091L19.1427 29.0748V20.8572H10.9252L12.8908 22.8229C13.226 23.1581 13.226 23.6999 12.8908 24.035C12.5556 24.3702 12.0139 24.3702 11.6787 24.035L8.24972 20.6061C7.91797 20.2743 7.91539 19.7274 8.24972 19.3931L11.6787 15.9641C12.0139 15.6289 12.5556 15.6289 12.8908 15.9641C13.226 16.2993 13.226 16.8411 12.8908 17.1762L10.9252 19.1428H19.1427V10.9252L17.177 12.8909C16.8419 13.2261 16.3001 13.2261 15.9649 12.8909C15.6297 12.5557 15.6297 12.0139 15.9649 11.6787L19.3939 8.24978C19.7256 7.91803 20.2725 7.91546 20.6069 8.24978L24.0358 11.6787C24.371 12.0139 24.371 12.5557 24.0358 12.8909C23.8678 13.0581 23.6484 13.1421 23.4289 13.1421C23.2095 13.1421 22.99 13.0581 22.8228 12.8909L20.8572 10.9252V19.1428H29.0747L27.109 17.1771C26.7739 16.8419 26.7739 16.3001 27.109 15.965C27.4442 15.6298 27.986 15.6298 28.3212 15.965L31.7502 19.3939C32.0845 19.7274 32.0819 20.2752 31.7502 20.6061Z" fill="#7209B7"/>
</svg>
